Coordinates
version=1
nRows=24
nColumns=24
inDegrees=yes

Units are S.I. units (second, meters, Newtons, ...)
Angles are in degrees.

endheader
time	pelvis_tilt	pelvis_list	pelvis_rotation	pelvis_tx	pelvis_ty	pelvis_tz	hip_flexion_r	hip_adduction_r	hip_rotation_r	knee_angle_r	ankle_angle_r	subtalar_angle_r	mtp_angle_r	hip_flexion_l	hip_adduction_l	hip_rotation_l	knee_angle_l	ankle_angle_l	subtalar_angle_l	mtp_angle_l	lumbar_extension	lumbar_bending	lumbar_rotation
      1.01000000	     -8.32416552	     -4.79842150	     -4.14873215	     -0.49149332	      1.25037675	     -0.91750141	    -11.85473797	      9.50912886	     10.41836584	     -5.04981649	     11.42521949	     13.38971956	      9.57425904	     36.24782184	      0.07041325	      4.92374135	     -8.09915577	     -4.55995816	    -22.69235924	      8.27857477	     -1.26888130	     10.69659089	      3.95543878
      1.01500000	     -8.40245006	     -4.70113684	     -4.23055721	     -0.48433187	      1.25002157	     -0.91759129	    -11.93490288	      9.39617205	     10.37277304	     -5.60969578	     11.14186437	     13.42883745	      9.66139619	     36.21715922	      0.22621143	      4.77559745	     -8.55816393	     -4.94709806	    -22.57217337	      8.32153454	     -1.15480760	     10.50048599	      4.00534696
      1.02000000	     -8.56421410	     -4.57154577	     -4.39362049	     -0.47710760	      1.24975987	     -0.91754722	    -11.84422322	      9.25070406	     10.43627320	     -6.30408431	     10.94816053	     13.58892503	     10.18707860	     36.20684778	      0.35228599	      4.60246076	     -8.93361881	     -5.58090606	    -22.73738221	      8.26475654	     -0.93732268	     10.26649307	      4.18043684
      1.02500000	     -8.68079125	     -4.47310711	     -4.48846876	     -0.46988610	      1.24964304	     -0.91754636	    -11.77883364	      9.15447682	     10.47427482	     -7.01687185	     10.53210234	     13.46769388	     11.04442416	     36.12851877	      0.49180680	      4.59226588	     -9.29035544	     -6.33560994	    -23.09910632	      7.99960577	     -0.77816756	     10.05138454	      4.22093805
      1.03000000	     -8.78305952	     -4.35264237	     -4.58664041	     -0.46261044	      1.24966265	     -0.91740616	    -11.70038729	      9.04137304	     10.52182198	     -7.76525083	     10.00161345	     13.48131141	     11.29131380	     36.04173856	      0.61961621	      4.44264715	     -9.69294687	     -6.90461155	    -23.03246870	      7.93151991	     -0.61420067	      9.78109900	      4.30352498
      1.03500000	     -8.89001137	     -4.25810834	     -4.67189915	     -0.45539846	      1.24979558	     -0.91730425	    -11.54838976	      8.97111232	     10.61299869	     -8.60842977	      9.49262053	     13.25068061	     12.41032495	     35.96218430	      0.74419989	      4.45634738	    -10.11511671	     -7.73158257	    -23.42755012	      7.35010630	     -0.46387284	      9.54279328	      4.37850959
      1.04000000	     -8.98176334	     -4.12891601	     -4.78281618	     -0.44812893	      1.25011235	     -0.91700568	    -11.34105128	      8.87383122	     10.68015095	     -9.56395445	      8.82996478	     13.29145237	     12.63832763	     35.83477688	      0.84388434	      4.29368500	    -10.50614433	     -8.26409873	    -23.31669862	      7.27700090	     -0.31594487	      9.23365048	      4.47956933
      1.04500000	     -9.07620932	     -4.02921055	     -4.84871582	     -0.44091340	      1.25052173	     -0.91675488	    -11.06297849	      8.82928517	     10.72128549	    -10.60848254	      8.17495077	     13.10605728	     13.76423975	     35.72835424	      0.95439894	      4.29616390	    -10.94215638	     -8.98004992	    -23.54003415	      6.59752931	     -0.17438178	      8.94474991	      4.52759554
      1.05000000	     -9.12253543	     -3.89613847	     -4.91885282	     -0.43366852	      1.25112905	     -0.91637547	    -10.76985721	      8.75333962	     10.70970298	    -11.74570160	      7.33739038	     13.16388303	     13.98024918	     35.53494298	      1.06192024	      4.19640963	    -11.33164066	     -9.44535199	    -23.38041298	      6.53032960	     -0.07510118	      8.59493489	      4.60521964
      1.05500000	     -9.17335437	     -3.76029253	     -4.96502480	     -0.42642807	      1.25185290	     -0.91596568	    -10.39251572	      8.69014410	     10.62709395	    -12.99170247	      6.42620153	     13.21101822	     14.27382563	     35.34347836	      1.17978541	      4.14064995	    -11.73133466	     -9.91152909	    -23.26599361	      6.39452025	      0.03510218	      8.22346291	      4.66428640
      1.06000000	     -9.22069800	     -3.63124145	     -4.95268160	     -0.41920065	      1.25263012	     -0.91564913	     -9.91140210	      8.63787424	     10.35121400	    -14.39544651	      5.60108020	     13.33057397	     15.48907278	     35.14195583	      1.34059687	      4.25574165	    -12.14140062	    -10.36902571	    -23.28682105	      5.50643905	      0.14143274	      7.85921943	      4.62257730
      1.06500000	     -9.21746430	     -3.47830413	     -4.96558471	     -0.41201081	      1.25359968	     -0.91517314	     -9.43891024	      8.56506742	     10.13975506	    -15.83308382	      4.46860887	     13.46324428	     15.76826887	     34.86501998	      1.47739900	      4.21346580	    -12.51803304	    -10.69463886	    -23.07340007	      5.37346496	      0.18235735	      7.44424572	      4.60864762
      1.07000000	     -9.17781983	     -3.29221550	     -4.91967621	     -0.40479788	      1.25463432	     -0.91471032	     -8.93079405	      8.45522653	      9.72549654	    -17.36488229	      3.24844140	     13.54423308	     15.97638783	     34.53853444	      1.68063824	      4.23220061	    -12.88666829	    -10.96119077	    -22.90195276	      5.28017444	      0.21311084	      6.95948604	      4.62059076
      1.07500000	     -9.17681802	     -3.09059099	     -4.82525603	     -0.39758662	      1.25561405	     -0.91438183	     -8.25308943	      8.29593319	      9.03796624	    -19.08524530	      2.09244437	     14.08984355	     16.43004097	     34.24949969	      1.93921616	      4.37209602	    -13.25808875	    -11.15062988	    -22.74269136	      4.81878476	      0.28274511	      6.48484744	      4.50306339
      1.08000000	     -9.11463124	     -2.83856593	     -4.75523416	     -0.39038825	      1.25676390	     -0.91388387	     -7.63297759	      8.09130746	      8.46415090	    -20.75916042	      0.60904704	     14.13309090	     16.59968429	     33.82832328	      2.21084096	      4.40604053	    -13.51320201	    -11.31740093	    -22.58559463	      4.71413817	      0.29264867	      5.91839619	      4.47056260
      1.08500000	     -9.08415821	     -2.57393692	     -4.58716485	     -0.38316441	      1.25778563	     -0.91361325	     -6.89631690	      7.80889512	      7.53856729	    -22.53266848	     -0.84245861	     14.70010163	     16.82321320	     33.45207724	      2.57210830	      4.61724886	    -13.79241823	    -11.41924434	    -22.44964666	      4.29163506	      0.34674611	      5.35999320	      4.27815921
      1.09000000	     -9.01266020	     -2.28041090	     -4.42080358	     -0.37594600	      1.25890178	     -0.91328595	     -6.19330904	      7.48040030	      6.65228863	    -24.26775726	     -2.49444222	     14.94506035	     16.88616902	     32.98027617	      2.95241767	      4.78396848	    -13.98427771	    -11.49814429	    -22.33929386	      3.96216353	      0.36146020	      4.75790695	      4.12337051
      1.09500000	     -8.95174384	     -1.96870863	     -4.25723897	     -0.36871452	      1.26006347	     -0.91294749	     -5.44747645	      7.11115056	      5.77040194	    -26.00361580	     -4.23304921	     15.03123340	     16.90112930	     32.45954792	      3.34191552	      4.95238468	    -14.07159184	    -11.54362176	    -22.19567256	      3.79250281	      0.39604313	      4.14080030	      3.99024212
      1.10000000	     -8.87111028	     -1.63945428	     -4.01896102	     -0.36145767	      1.26114686	     -0.91279708	     -4.68372844	      6.64855310	      4.65851477	    -27.78062904	     -5.91484938	     15.33708978	     16.40757326	     31.90926249	      3.81709565	      5.25262467	    -14.15783912	    -11.52513000	    -22.26679282	      3.26782349	      0.41925074	      3.51319602	      3.78851052
      1.10500000	     -8.79010801	     -1.33836863	     -3.81798425	     -0.35427338	      1.26233513	     -0.91254898	     -3.90037047	      6.21896475	      3.69588508	    -29.52235872	     -7.70680601	     15.20043338	     16.30046454	     31.32678929	      4.21766798	      5.42066922	    -14.18001186	    -11.49373346	    -22.12050843	      3.18806608	      0.42271154	      2.92570660	      3.59416206
      1.11000000	     -8.71967873	     -1.02036921	     -3.56630002	     -0.34706688	      1.26345712	     -0.91249151	     -3.07301307	      5.70563784	      2.60416558	    -31.30878829	     -9.39361115	     15.25949178	     14.97167980	     30.71682357	      4.69208992	      5.73356028	    -14.14341809	    -11.49892053	    -22.30990947	      2.72447869	      0.44655673	      2.34334565	      3.34917347
      1.11500000	     -8.67973261	     -0.86267896	     -3.17266715	     -0.34024963	      1.26446979	     -0.91263961	     -2.18565030	      5.35803501	      1.45371026	    -33.05676094	    -10.99742483	     14.88341155	     14.82747721	     30.23268568	      5.08031794	      6.23376728	    -14.22775243	    -11.32651484	    -22.18372742	      2.70999715	      0.43774251	      1.93067803	      2.98623395
      1.12000000	     -8.69817350	     -0.70251461	     -2.76241059	     -0.33346283	      1.26539896	     -0.91293759	     -1.20302181	      4.96682919	      0.30765614	    -34.84368236	    -12.46544490	     14.53640554	     13.47537327	     29.78559547	      5.50501548	      6.85332487	    -14.27187367	    -11.29731229	    -22.53023511	      2.42599161	      0.48481667	      1.54896090	      2.58151926
      1.12500000	     -8.67555935	     -0.57634100	     -2.35810258	     -0.32674084	      1.26641011	     -0.91322860	     -0.26126426	      4.59223119	     -0.77847100	    -36.57369624	    -13.77167091	     13.93833002	     12.58718405	     29.26462819	      5.87277441	      7.39707599	    -14.26851187	    -11.09645407	    -22.57280136	      2.32407358	      0.47659462	      1.21235021	      2.19278323
